<?xml version="1.0" encoding="iso-8859-1"?>
<!-- Generator: Adobe Illustrator 19.0.0, SVG Export Plug-In . SVG Version: 6.00 Build 0)  -->
<svg version="1.1" id="Layer_1" xmlns="http://www.w3.org/2000/svg" xmlns:xlink="http://www.w3.org/1999/xlink" x="0px" y="0px"
	 viewBox="0 0 512 512" style="enable-background:new 0 0 512 512;" xml:space="preserve">
<polygon style="fill:#00B4D7;" points="66.313,9.253 208.192,9.253 454.939,256 208.192,502.747 66.313,502.747 313.06,256 "/>
<polygon style="fill:#0093C4;" points="66.313,502.747 134.168,502.747 380.915,256 134.168,9.253 66.313,9.253 313.06,256 "/>
<rect x="135.631" y="101.781" transform="matrix(-0.7071 -0.7071 0.7071 -0.7071 324.2816 356.39)" style="fill:#FFFFFF;" width="200.64" height="18.506"/>
<path d="M212.024,512H43.975l256-256l-256-256h168.051l256,256L212.024,512z M88.651,493.494h115.708L441.853,256L204.36,18.506
	H88.651L326.145,256L88.651,493.494z"/>
<g>
</g>
<g>
</g>
<g>
</g>
<g>
</g>
<g>
</g>
<g>
</g>
<g>
</g>
<g>
</g>
<g>
</g>
<g>
</g>
<g>
</g>
<g>
</g>
<g>
</g>
<g>
</g>
<g>
</g>
</svg>
