<?xml version="1.0" encoding="iso-8859-1"?>
<!-- Generator: Adobe Illustrator 19.0.0, SVG Export Plug-In . SVG Version: 6.00 Build 0)  -->
<svg version="1.1" id="Layer_1" xmlns="http://www.w3.org/2000/svg" xmlns:xlink="http://www.w3.org/1999/xlink" x="0px" y="0px"
	 viewBox="0 0 512 512" style="enable-background:new 0 0 512 512;" xml:space="preserve">
<polygon style="fill:#00B4D7;" points="445.686,502.747 303.807,502.747 57.06,256 303.807,9.253 445.686,9.253 198.939,256 "/>
<polygon style="fill:#0093C4;" points="445.686,9.253 377.831,9.253 131.084,256 377.831,502.747 445.686,502.747 198.939,256 "/>
<rect x="175.731" y="391.708" transform="matrix(-0.7071 -0.7071 0.7071 -0.7071 187.726 879.6804)" style="fill:#FFFFFF;" width="200.64" height="18.506"/>
<path d="M468.024,512H299.975l-256-256l256-256h168.051l-256,256L468.024,512z M307.639,493.494h115.708L185.853,256L423.348,18.506
	H307.64L70.146,256L307.639,493.494z"/>
<g>
</g>
<g>
</g>
<g>
</g>
<g>
</g>
<g>
</g>
<g>
</g>
<g>
</g>
<g>
</g>
<g>
</g>
<g>
</g>
<g>
</g>
<g>
</g>
<g>
</g>
<g>
</g>
<g>
</g>
</svg>
