<svg id="Layer_1" enable-background="new 0 0 56.69 56.69" height="512" viewBox="0 0 56.69 56.69" width="512" xmlns="http://www.w3.org/2000/svg"><g><path d="m39.49 51.779c-.791 0-2.01-.229-3.316-1.325l-21.134-17.685c-1.347-1.126-2.119-2.739-2.119-4.427s.772-3.301 2.119-4.427l21.134-17.682c1.307-1.093 2.525-1.322 3.316-1.322 2.127 0 4.279 1.674 4.279 4.872v37.125c.001 3.198-2.152 4.871-4.279 4.871zm0-44.868c-.461 0-1.188.148-2.033.856l-21.134 17.682c-.892.745-1.402 1.8-1.402 2.893 0 1.094.511 2.147 1.402 2.893l21.134 17.687c.848.709 1.574.858 2.033.858 1.135 0 2.279-.888 2.279-2.871v-37.126c.001-1.984-1.144-2.872-2.279-2.872z"/></g></svg>